<svg width="256" height="256" viewBox="0 0 256 256" fill="none" xmlns="http://www.w3.org/2000/svg">
<g clip-path="url(#clip0_7_6)">
<path d="M150.73 8.7192C151.285 8.84983 151.841 8.98045 152.414 9.11503C160.309 11.0421 167.738 13.86 175.111 17.2525C175.531 17.4425 175.951 17.6324 176.383 17.8281C188.556 23.3851 198.824 31.4131 208.634 40.4144C209.54 39.6224 209.54 39.6224 210.463 38.8144C211.273 38.1259 212.086 37.4403 212.901 36.7573C213.282 36.4367 213.663 36.1162 214.056 35.7859C220.265 30.8288 226.314 29.9315 234.09 30.4945C237.309 30.8901 239.997 32.0825 242.768 33.7097C243.222 33.9745 243.676 34.2392 244.144 34.5121C249.748 38.2514 253.011 44.2846 254.349 50.7763C255.217 58.6862 253.454 65.1846 248.644 71.5002C247.359 72.9605 246.061 74.3045 244.663 75.6525C244.036 76.258 244.036 76.258 243.397 76.8756C242.556 77.6755 241.705 78.4642 240.842 79.2402C238.53 81.2908 238.53 81.2908 237.804 84.1406C238.149 85.1247 238.149 85.1247 238.501 86.1287C238.813 87.1993 239.123 88.2709 239.43 89.343C239.805 90.5828 240.182 91.8225 240.558 93.0621C243.327 102.361 245.253 111.595 245.351 121.329C245.36 122.067 245.36 122.067 245.369 122.82C245.477 133.941 245.369 144.736 242.768 155.614C242.624 156.216 242.48 156.819 242.332 157.439C234.123 190.455 213.022 217.088 184.168 234.567C172.815 241.257 160.51 245.434 147.682 248.262C147.218 248.37 146.754 248.479 146.276 248.591C131.666 251.893 113.483 251.674 98.9202 248.262C98.1036 248.08 98.1036 248.08 97.2705 247.895C74.856 242.828 54.8561 232.122 38.291 216.239C37.4175 215.404 36.5335 214.58 35.6487 213.757C15.3406 194.332 2.0376 164.174 1.22051 136.163C1.17095 133.631 1.16158 131.1 1.16779 128.567C1.16832 128.032 1.16886 127.497 1.16941 126.946C1.28059 93.0706 15.1113 62.9551 38.9736 39.2241C45.2981 33.0866 52.4561 28.0165 59.9106 23.3478C60.4587 23.0016 60.4587 23.0016 61.0178 22.6484C72.5978 15.439 85.6488 10.9895 98.9202 8.10968C99.3824 8.00213 99.8446 7.89459 100.321 7.78378C116.131 4.20856 135.061 5.02351 150.73 8.7192Z" fill="#89B7DD"/>
<path d="M150.73 8.7192C151.285 8.84983 151.841 8.98045 152.414 9.11503C160.309 11.0421 167.738 13.86 175.111 17.2525C175.531 17.4425 175.951 17.6324 176.383 17.8281C188.556 23.3851 198.824 31.4131 208.634 40.4144C209.54 39.6224 209.54 39.6224 210.463 38.8144C211.273 38.1259 212.086 37.4403 212.901 36.7573C213.282 36.4367 213.663 36.1162 214.056 35.7859C220.265 30.8288 226.314 29.9315 234.09 30.4945C237.309 30.8901 239.997 32.0825 242.768 33.7097C243.222 33.9745 243.676 34.2392 244.144 34.5121C249.748 38.2514 253.011 44.2846 254.349 50.7763C255.211 58.6321 253.498 65.2095 248.663 71.4621C244.081 76.867 238.842 81.766 233.489 86.3927C231.74 87.9354 230.151 89.6202 228.544 91.3073C227.53 92.224 227.53 92.224 226.311 92.224C226.068 92.7634 226.068 92.7634 225.82 93.3138C225.07 94.7018 224.293 95.6155 223.182 96.7293C222.796 97.1196 222.409 97.51 222.011 97.9121C221.386 98.5332 221.386 98.5332 220.749 99.1668C220.32 99.5963 219.892 100.026 219.451 100.468C218.546 101.373 217.641 102.277 216.733 103.179C215.34 104.566 213.954 105.959 212.568 107.353C211.689 108.231 210.809 109.108 209.93 109.986C209.513 110.405 209.097 110.824 208.668 111.256C208.281 111.638 207.895 112.021 207.496 112.415C207.156 112.754 206.816 113.093 206.466 113.443C205.587 114.167 205.587 114.167 204.368 114.167C204.204 114.528 204.04 114.89 203.871 115.263C203.147 116.608 202.413 117.498 201.339 118.576C200.817 119.101 200.817 119.101 200.284 119.636C199.922 119.993 199.56 120.351 199.187 120.719C198.825 121.086 198.462 121.453 198.089 121.831C197.567 122.351 197.567 122.351 197.034 122.881C196.717 123.198 196.399 123.514 196.071 123.84C195.225 124.529 195.225 124.529 194.006 124.529C193.853 124.887 193.7 125.245 193.542 125.614C192.694 127.133 191.765 127.964 190.458 129.103C187.452 132.054 186.293 135.189 184.939 139.119C184.515 140.291 184.091 141.463 183.665 142.634C183.189 143.955 182.718 145.278 182.249 146.601C181.118 149.777 179.954 152.94 178.787 156.103C178.348 157.293 177.908 158.484 177.469 159.675C177.245 160.283 177.02 160.891 176.789 161.517C175.616 164.702 174.449 167.889 173.282 171.076C171.116 176.986 168.944 182.894 166.768 188.8C166.623 189.193 166.478 189.587 166.329 189.992C165.04 193.488 163.751 196.985 162.462 200.481C161.924 201.941 161.385 203.401 160.847 204.861C160.359 206.186 159.871 207.51 159.382 208.835C157.909 212.83 156.448 216.83 154.996 220.833C152.461 219.836 150.765 217.988 148.887 216.089C148.521 215.725 148.156 215.361 147.779 214.985C146.554 213.762 145.333 212.534 144.112 211.307C143.236 210.43 142.358 209.553 141.481 208.676C139.098 206.294 136.72 203.908 134.341 201.521C131.856 199.028 129.367 196.538 126.878 194.048C122.166 189.332 117.456 184.612 112.748 179.892C107.388 174.518 102.024 169.148 96.6601 163.778L63.5678 130.624C64.9323 129.259 65.8687 128.913 67.6696 128.256C68.2756 128.033 68.8817 127.81 69.5061 127.58C70.1708 127.339 70.8354 127.098 71.5202 126.85C72.2134 126.596 72.9066 126.342 73.6208 126.08C75.1212 125.53 76.6219 124.982 78.1234 124.435C80.499 123.571 82.8728 122.702 85.2464 121.832C87.6675 120.945 90.0887 120.058 92.5106 119.173C97.4093 117.383 102.305 115.584 107.196 113.774C107.785 113.556 108.374 113.339 108.98 113.115C111.845 112.055 114.708 110.99 117.568 109.916C123.147 107.828 128.736 105.841 134.408 104.019C146.851 99.9615 155.975 96.2406 164.234 85.676C165.531 84.0885 166.941 82.6866 168.406 81.2525C169.026 80.6344 169.644 80.0154 170.263 79.3958C175.129 74.529 179.996 69.6622 184.863 64.7954C174.202 64.5942 163.542 64.3931 152.558 64.1859C153.357 69.9846 153.357 69.9846 154.163 75.7823C154.69 79.6676 155.158 83.4257 154.996 87.3478C150.958 89.1763 150.958 89.1763 148.901 89.1763C148.83 88.5926 148.76 88.0088 148.687 87.4073C148.422 85.2217 148.158 83.0361 147.893 80.8505C147.779 79.9082 147.665 78.9659 147.551 78.0237C147.386 76.6619 147.221 75.3 147.056 73.9383C147.006 73.5234 146.956 73.1086 146.904 72.6813C146.56 69.8486 146.207 67.0173 145.854 64.1859C130.969 64.1859 116.084 64.1859 100.749 64.1859C99.2941 75.4711 99.2941 75.4711 98.2083 86.7763C98.1567 87.4186 98.1052 88.0608 98.0521 88.7225C97.894 90.7021 97.7403 92.6821 97.5868 94.6621C97.478 96.0343 97.3689 97.4065 97.2595 98.7787C96.9969 102.079 96.7379 105.38 96.4821 108.681C95.5944 109.09 94.7053 109.496 93.8154 109.9C93.3204 110.126 92.8254 110.353 92.3154 110.586C90.9964 111.119 90.9964 111.119 89.7773 111.119C90.4973 95.321 91.805 79.859 94.044 64.1859C81.1708 64.1859 68.2977 64.1859 55.0345 64.1859C54.6322 65.3927 54.2299 66.5996 53.8154 67.843C53.4734 68.7052 53.1216 69.5635 52.7583 70.4168C45.3347 88.1687 42.721 106.106 41.0154 125.138C44.4348 125.138 47.8543 125.138 51.3773 125.138C39.9026 132.788 26.7313 131.781 13.5868 131.233C13.8885 135.156 13.8885 135.156 14.1964 139.157C12.3941 139.871 10.5909 140.582 8.78683 141.291C8.27376 141.494 7.76069 141.698 7.23207 141.907C6.49546 142.196 6.49546 142.196 5.74398 142.491C5.29072 142.669 4.83746 142.848 4.37046 143.032C3.22493 143.424 3.22493 143.424 2.00588 143.424C1.34182 140.717 1.27842 138.053 1.25112 135.281C1.24512 134.785 1.23912 134.29 1.23295 133.779C0.891249 98.1336 11.9163 67.2165 36.8179 41.3917C43.748 34.3463 51.5502 28.5838 59.9106 23.3478C60.4587 23.0016 60.4587 23.0016 61.0178 22.6484C72.5978 15.439 85.6488 10.9895 98.9202 8.10968C99.3824 8.00213 99.8446 7.89459 100.321 7.78378C116.131 4.20856 135.061 5.02351 150.73 8.7192Z" fill="#02486C"/>
<path d="M55.0344 64.1859C67.9076 64.1859 80.7807 64.1859 94.044 64.1859C93.6648 69.4943 93.2274 74.6943 92.5583 79.9573C91.6746 87.1836 91.1745 94.4064 90.781 101.672C90.7374 102.462 90.6937 103.251 90.6487 104.064C90.6125 104.765 90.5763 105.465 90.5389 106.187C90.3868 108.072 90.3868 108.072 89.7773 111.119C91.7887 110.315 93.8002 109.51 95.8725 108.681C95.969 107.425 95.969 107.425 96.0673 106.143C96.312 102.969 96.5621 99.7965 96.8138 96.6238C96.921 95.2628 97.0268 93.9017 97.131 92.5405C98.875 69.807 98.875 69.807 100.749 64.1859C115.633 64.1859 130.518 64.1859 145.853 64.1859C149.163 81.8377 149.163 81.8377 148.901 89.1763C151.918 88.2712 151.918 88.2712 154.996 87.3478C154.922 86.7761 154.849 86.2044 154.773 85.6153C154.498 83.4822 154.226 81.3489 153.955 79.2153C153.837 78.2942 153.719 77.3732 153.6 76.4522C153.428 75.124 153.26 73.7955 153.092 72.4668C152.989 71.6688 152.887 70.8708 152.782 70.0487C152.558 67.843 152.558 67.843 152.558 64.1859C163.42 64.1859 174.282 64.1859 185.473 64.1859C183.218 66.8162 181.069 69.2735 178.632 71.6954C178.347 71.9798 178.062 72.2641 177.768 72.5571C176.871 73.4507 175.972 74.3421 175.073 75.2335C174.469 75.8341 173.865 76.4349 173.262 77.0359C172.15 78.1424 171.038 79.248 169.925 80.3528C169.173 81.0999 169.173 81.0999 168.406 81.8621C167.615 82.6291 167.615 82.6291 166.808 83.4116C165.516 84.747 164.494 86.0567 163.439 87.5787C154.002 99.6932 139.797 103.01 125.753 107.65C118.697 109.984 111.741 112.555 104.791 115.184C101.607 116.386 98.4181 117.575 95.2297 118.764C94.6203 118.992 94.0109 119.22 93.3831 119.454C87.0706 121.812 80.7489 124.145 74.4249 126.472C73.672 126.749 73.672 126.749 72.9039 127.031C70.1985 128.026 67.4928 129.021 64.7868 130.014C64.6443 131.322 64.6443 131.322 65.7695 132.232C66.2296 132.63 66.6897 133.029 67.1638 133.439C67.6825 133.896 68.2013 134.352 68.7358 134.823C69.3034 135.322 69.8711 135.821 70.4559 136.336C92.5358 156.3 92.5358 156.3 93.4337 166.497C93.5431 169.859 93.3393 173.169 92.9752 176.514C92.7739 179.545 93.2089 182.326 93.7545 185.303C94.044 187.31 94.044 187.31 94.044 192.186C81.1708 192.186 68.2977 192.186 55.0344 192.186C49.9892 181.375 49.9892 181.375 48.5583 177.214C48.3836 176.71 48.209 176.205 48.0291 175.685C46.0313 169.715 44.6704 163.613 43.4535 157.443C43.3528 156.935 43.2522 156.426 43.1484 155.903C42.0623 150.287 41.3208 144.902 41.6249 139.157C39.8146 139.761 38.0044 140.364 36.1392 140.986C36.3264 153.202 38.6871 165.463 42.844 176.948C43.0189 177.433 43.1938 177.918 43.374 178.418C44.2899 180.944 45.2197 183.465 46.1654 185.981C46.9351 188.035 47.6531 190.1 48.3297 192.186C46.07 192.328 43.8115 192.414 41.5487 192.491C40.9107 192.531 40.2727 192.572 39.6154 192.614C34.9882 192.732 34.9882 192.732 33.1373 191.241C32.169 189.978 31.4041 188.712 30.6535 187.31C30.2976 186.731 30.2976 186.731 29.9344 186.142C29.2394 185.01 28.5894 183.863 27.9487 182.7C27.7155 182.278 27.4822 181.857 27.2419 181.422C21.6115 171.119 16.7722 160.06 15.4154 148.3C15.0894 148.429 14.7635 148.559 14.4276 148.692C12.9545 149.275 11.4802 149.854 10.0059 150.433C9.4928 150.637 8.97973 150.84 8.45111 151.05C7.71451 151.339 7.71451 151.339 6.96302 151.633C6.50976 151.812 6.0565 151.991 5.58951 152.175C4.44397 152.567 4.44397 152.567 3.22492 152.567C2.82264 149.55 2.42035 146.533 2.00587 143.424C3.8081 142.71 5.61137 142 7.4154 141.291C7.92847 141.087 8.44154 140.884 8.97016 140.674C9.46123 140.481 9.9523 140.289 10.4583 140.091C10.9115 139.912 11.3648 139.733 11.8318 139.549C12.9773 139.157 12.9773 139.157 14.1964 139.157C13.8946 135.235 13.8946 135.235 13.5868 131.233C14.1998 131.241 14.8127 131.248 15.4443 131.255C27.6241 131.355 38.3696 131.207 49.5487 125.748C45.3247 125.446 45.3247 125.446 41.0154 125.138C40.775 109.906 43.5308 94.7823 48.2535 80.3382C48.4383 79.7712 48.6231 79.2042 48.8135 78.6199C50.5407 73.5672 52.7382 69.1063 55.0344 64.1859Z" fill="#FEFEFE"/>
<path d="M159.263 109.291C160.724 110.445 162.002 111.746 163.294 113.083C163.856 113.65 163.856 113.65 164.429 114.229C165.621 115.434 166.804 116.648 167.987 117.862C168.795 118.682 169.603 119.502 170.412 120.32C172.391 122.326 174.362 124.34 176.33 126.357C175.108 130.597 173.719 134.748 172.196 138.888C171.973 139.499 171.75 140.111 171.52 140.74C170.788 142.74 170.054 144.739 169.32 146.738C168.808 148.136 168.296 149.534 167.785 150.931C163.559 162.459 159.28 173.967 154.977 185.465C154.742 186.096 154.506 186.726 154.264 187.375C153.825 188.546 153.387 189.718 152.947 190.889C151.955 193.542 150.992 196.195 150.12 198.891C148.01 197.983 146.645 196.785 145.029 195.165C144.502 194.64 143.976 194.115 143.433 193.574C142.855 192.992 142.276 192.409 141.698 191.826C141.086 191.213 140.473 190.6 139.86 189.988C138.197 188.326 136.539 186.66 134.881 184.994C133.147 183.252 131.41 181.514 129.673 179.776C126.385 176.484 123.1 173.19 119.816 169.894C116.078 166.141 112.335 162.392 108.593 158.644C100.895 150.933 93.2014 143.218 85.5107 135.5C86.7635 134.247 87.4312 133.929 89.0584 133.339C89.7889 133.071 89.7889 133.071 90.5342 132.797C91.0709 132.604 91.6076 132.411 92.1607 132.212C92.728 132.005 93.2953 131.798 93.8798 131.584C95.7747 130.893 97.6713 130.206 99.5678 129.519C100.892 129.037 102.217 128.554 103.541 128.07C105.647 127.302 107.752 126.534 109.857 125.767C117.652 122.929 125.436 120.061 133.219 117.19C135.502 116.348 137.785 115.507 140.069 114.666C141.484 114.145 142.898 113.624 144.313 113.103C144.953 112.867 145.593 112.631 146.253 112.388C146.852 112.167 147.452 111.946 148.07 111.718C148.632 111.513 149.193 111.308 149.772 111.097C150.771 110.723 151.765 110.332 152.75 109.922C156.869 108.223 156.869 108.223 159.263 109.291Z" fill="#FCFDFD"/>
<path d="M55.0345 64.1859C67.9076 64.1859 80.7807 64.1859 94.044 64.1859C93.6648 69.4942 93.2278 74.6944 92.5583 79.9573C91.6726 87.1656 91.1857 94.3684 90.8346 101.619C90.7929 102.406 90.7512 103.194 90.7083 104.005C90.6752 104.702 90.6422 105.399 90.6081 106.117C90.1733 109.958 90.1733 109.958 89.1678 111.729C87.1541 112.918 85.0018 113.628 82.794 114.379C82.1516 114.61 81.5092 114.841 80.8473 115.079C78.7872 115.817 76.7208 116.535 74.6535 117.253C73.2868 117.737 71.9205 118.223 70.5547 118.711C68.5725 119.418 66.5898 120.123 64.6032 120.817C61.2703 121.983 57.994 123.215 54.7345 124.572C51.5794 125.807 49.0439 126.06 45.7011 125.633C45.0134 125.569 45.0134 125.569 44.3118 125.504C43.2113 125.399 42.1129 125.271 41.0154 125.138C40.6913 109.937 43.5432 94.7445 48.2535 80.3382C48.5307 79.4877 48.5307 79.4877 48.8135 78.6199C50.5407 73.5672 52.7383 69.1063 55.0345 64.1859Z" fill="#DDF3FB"/>
<path d="M234.996 43.8049C237.841 45.4146 240.087 47.8538 241.549 50.7763C241.64 52.0439 241.684 53.3151 241.701 54.5859C241.725 55.6089 241.725 55.6089 241.749 56.6525C241.246 61.7986 237.577 64.7505 234.085 68.1999C233.502 68.7825 232.919 69.3655 232.337 69.949C230.761 71.5257 229.179 73.0968 227.596 74.6669C225.94 76.3109 224.29 77.9601 222.639 79.6088C219.515 82.7274 216.386 85.8412 213.256 88.9534C209.691 92.4979 206.131 96.0475 202.572 99.5976C195.252 106.898 187.927 114.192 180.596 121.481C178.14 120.349 176.462 118.722 174.587 116.81C174.252 116.473 173.917 116.137 173.572 115.79C172.508 114.718 171.447 113.643 170.387 112.567C169.664 111.838 168.941 111.109 168.218 110.381C166.449 108.599 164.683 106.812 162.92 105.024C165.808 101.555 168.894 98.347 172.082 95.1543C172.624 94.6097 173.165 94.0651 173.723 93.5039C175.198 92.0216 176.674 90.5412 178.151 89.0615C179.075 88.1354 179.999 87.2089 180.923 86.2823C183.819 83.3782 186.716 80.4754 189.615 77.5743C192.952 74.2339 196.286 70.8896 199.616 67.5418C202.198 64.9466 204.784 62.355 207.372 59.766C208.915 58.2225 210.456 56.6777 211.994 55.1291C213.707 53.4039 215.427 51.6859 217.149 49.9686C217.654 49.4575 218.16 48.9465 218.68 48.4199C223.446 43.6889 228.347 40.8495 234.996 43.8049Z" fill="#86B5DC"/>
<path d="M100.749 64.1859C115.633 64.1859 130.518 64.1859 145.853 64.1859C147.005 70.3253 148.051 76.2888 148.711 82.4716C148.79 83.1834 148.869 83.8953 148.95 84.6287C149.14 86.3474 149.327 88.0664 149.511 89.7859C148.86 90.0099 148.21 90.2339 147.54 90.4647C140.942 92.7507 134.373 95.1137 127.815 97.5144C127.399 97.6669 126.982 97.8193 126.553 97.9763C122.648 99.4059 118.744 100.838 114.841 102.27C112.681 103.063 110.521 103.854 108.361 104.645C107.153 105.087 105.946 105.531 104.738 105.975C104.009 106.241 103.28 106.508 102.528 106.783C101.569 107.135 101.569 107.135 100.589 107.495C99.2238 107.967 97.8896 108.363 96.4821 108.681C96.3712 102.201 96.6797 95.854 97.2821 89.4049C97.3226 88.9571 97.3632 88.5093 97.4049 88.0479C99.1288 69.0455 99.1288 69.0455 100.749 64.1859Z" fill="#DDF3FB"/>
<path d="M187.911 131.233C189.672 131.026 189.672 131.026 191.896 131.055C193.087 131.064 193.087 131.064 194.301 131.073C195.142 131.088 195.984 131.104 196.825 131.119C197.671 131.128 198.517 131.137 199.363 131.144C201.438 131.166 203.512 131.196 205.587 131.233C205.635 135.857 205.608 140.423 205.13 145.024C205.076 145.541 205.022 146.057 204.967 146.59C204.345 152.128 203.25 157.518 201.93 162.929C201.801 163.462 201.672 163.994 201.539 164.543C199.172 174.16 196.001 183.32 191.568 192.186C183.12 192.186 174.672 192.186 165.968 192.186C166.653 186.7 166.653 186.7 167.574 184.27C167.779 183.722 167.983 183.174 168.194 182.609C168.529 181.737 168.529 181.737 168.87 180.848C169.103 180.227 169.337 179.606 169.577 178.966C170.337 176.945 171.105 174.927 171.873 172.91C172.398 171.516 172.924 170.123 173.449 168.729C174.245 166.614 175.041 164.499 175.84 162.385C177.51 157.96 179.159 153.528 180.782 149.086C180.98 148.544 181.178 148.003 181.382 147.445C182.128 145.405 182.872 143.366 183.613 141.325C184.111 139.954 184.612 138.584 185.113 137.214C185.257 136.816 185.4 136.417 185.548 136.007C186.199 134.234 186.855 132.818 187.911 131.233Z" fill="#FDFDFE"/>
<path d="M126.839 17.9954C128.915 18.2126 129.891 18.3997 131.687 19.5192C132.852 21.1453 133.546 22.7031 134.273 24.5668C134.613 25.2166 134.953 25.8664 135.303 26.5359C140.004 35.6834 144.634 47.6753 144.634 58.0906C130.554 58.0906 116.474 58.0906 101.968 58.0906C102.735 53.1039 103.482 48.5404 104.901 43.7668C105.063 43.216 105.224 42.6652 105.391 42.0978C107.556 34.8365 110.21 28.0199 114.158 21.5192C114.468 20.9527 114.777 20.3862 115.096 19.8025C118.194 17.0542 122.907 17.8183 126.839 17.9954Z" fill="#DDF3FB"/>
<path d="M101.968 198.281C106.03 198.015 110.09 197.836 114.159 197.712C115.538 197.66 116.916 197.59 118.292 197.499C130.179 196.738 130.179 196.738 135.142 200.441C141.984 206.517 141.984 206.517 142.343 210.112C142.209 211.51 141.963 212.777 141.587 214.129C141.457 214.64 141.327 215.152 141.194 215.679C141.045 216.081 140.897 216.483 140.744 216.898C140.491 217.59 140.491 217.59 140.233 218.296C139.96 219.005 139.96 219.005 139.682 219.729C139.493 220.229 139.304 220.728 139.11 221.243C134.101 234.224 134.101 234.224 130.006 237.9C127.772 238.467 125.634 238.467 123.339 238.433C122.446 238.47 122.446 238.47 121.536 238.507C117.305 238.502 117.305 238.502 115.435 236.915C114.471 235.663 113.692 234.412 112.939 233.024C112.556 232.371 112.172 231.718 111.777 231.045C106.902 221.283 101.861 209.326 101.968 198.281Z" fill="#FEFEFE"/>
<path d="M211.682 131.233C218.722 131.233 225.762 131.233 233.015 131.233C233.015 136.14 232.561 140.449 231.796 145.253C231.65 146.389 231.65 146.389 231.501 147.548C229.478 162.212 223.002 181.475 212.292 192.186C211.251 192.239 210.208 192.251 209.165 192.245C208.22 192.242 208.22 192.242 207.255 192.239C206.591 192.234 205.928 192.229 205.244 192.224C204.245 192.22 204.245 192.22 203.226 192.216C201.575 192.208 199.924 192.198 198.273 192.186C198.501 191.581 198.73 190.976 198.965 190.353C199.796 188.151 200.619 185.946 201.44 183.741C201.869 182.597 202.306 181.455 202.744 180.314C208.651 164.549 210.538 147.925 211.682 131.233Z" fill="#FEFEFE"/>
<path d="M48.3297 64.1859C48.1827 64.562 48.0356 64.9381 47.8842 65.3256C40.1293 85.2769 36.6152 103.866 34.9202 125.138C27.8802 125.138 20.8402 125.138 13.5868 125.138C13.5868 120.42 13.8314 116.387 14.5773 111.805C14.6851 111.141 14.7928 110.478 14.9038 109.795C15.9753 103.553 17.5935 97.588 19.6821 91.6144C19.8217 91.2115 19.9614 90.8085 20.1053 90.3933C22.3604 84.0289 25.4085 78.0651 28.7258 72.1975C29.3483 71.0496 29.8902 69.8589 30.4178 68.6644C33.9494 61.8553 41.6887 63.6017 48.3297 64.1859Z" fill="#DCF2FB"/>
<path d="M58.6916 198.281C70.9613 198.281 83.231 198.281 95.8725 198.281C96.6771 201.902 97.4817 205.522 98.3106 209.253C98.9423 211.707 99.5831 214.136 100.292 216.567C100.558 217.483 100.558 217.483 100.829 218.417C102.327 223.398 104.25 228.094 106.477 232.788C107.453 234.853 107.453 234.853 108.063 236.681C91.0318 235.566 79.5488 225.848 68.444 213.519C66.0241 210.599 63.8535 207.522 61.7392 204.376C61.3809 203.844 61.0226 203.312 60.6535 202.764C58.6916 199.74 58.6916 199.74 58.6916 198.281Z" fill="#FDFEFE"/>
<path d="M108.063 19.6906C107.38 21.4758 106.628 23.1934 105.808 24.9216C100.767 35.5572 98.1138 46.6875 95.263 58.0906C83.1944 58.0906 71.1259 58.0906 58.6916 58.0906C62.1365 51.2008 62.1365 51.2008 64.6344 48.0335C64.8973 47.7001 65.1601 47.3667 65.4309 47.0232C67.9296 43.8866 70.5665 40.8917 73.3202 37.9764C73.7814 37.4759 74.2426 36.9754 74.7178 36.4597C78.445 32.5501 82.4965 29.4375 86.969 26.4484C87.8138 25.8771 88.6404 25.2791 89.463 24.6763C94.5249 21.2029 101.911 19.3714 108.063 19.6906Z" fill="#DCF3FB"/>
<path d="M138.539 19.6906C151.361 21.2611 160.232 25.6089 169.625 34.3192C169.954 34.6217 170.283 34.9242 170.623 35.2359C174.623 38.9511 178.208 42.8841 181.511 47.2335C181.803 47.6167 182.096 47.9999 182.398 48.3947C184.709 51.5376 186.107 54.4837 187.911 58.0906C175.842 58.0906 163.774 58.0906 151.339 58.0906C150.259 55.3895 149.599 52.8395 149.015 50.0145C147.017 40.799 144.261 32.4018 140.267 23.8514C139.642 22.483 139.078 21.095 138.539 19.6906Z" fill="#DCF3FB"/>
<path d="M105.625 140.376C127.348 140.376 149.072 140.376 171.454 140.376C169.241 146.612 167.028 152.847 164.749 159.272C158.198 159.65 151.685 159.965 145.13 160.072C144.414 160.083 144.414 160.083 143.684 160.095C123 160.358 123 160.358 115.289 153.536C111.516 149.81 108.262 145.583 105.625 140.986C105.625 140.785 105.625 140.584 105.625 140.376Z" fill="#DDF3FB"/>
<path d="M165.283 198.212C166.338 198.212 167.392 198.215 168.446 198.222C169 198.222 169.554 198.223 170.125 198.224C171.901 198.228 173.677 198.235 175.454 198.243C176.655 198.246 177.856 198.249 179.057 198.251C182.008 198.258 184.959 198.269 187.911 198.281C182.253 212.956 166.808 227.42 152.739 234.131C148.3 235.725 143.258 236.681 138.539 236.681C139.279 234.793 140.058 232.923 140.858 231.06C143.163 225.68 145.371 220.345 147.073 214.738C149.014 215.589 150.266 216.595 151.72 218.129C153.195 219.7 153.195 219.7 154.996 220.833C155.066 220.319 155.135 219.805 155.207 219.276C155.637 217.014 156.315 215 157.111 212.841C157.257 212.441 157.404 212.042 157.555 211.631C157.863 210.794 158.172 209.957 158.483 209.121C158.96 207.838 159.432 206.552 159.904 205.266C162.474 198.294 162.474 198.294 165.283 198.212Z" fill="#FDFDFE"/>
<path d="M227.53 92.8335C229.187 97.5863 230.36 102.333 231.301 107.272C231.403 107.799 231.504 108.327 231.609 108.871C232.623 114.361 233.015 119.537 233.015 125.138C225.975 125.138 218.935 125.138 211.682 125.138C208.728 111.774 208.728 111.774 211.121 107.509C213.903 103.565 222.418 92.8335 227.53 92.8335Z" fill="#FEFEFE"/>
<path d="M108.063 127.576C108.966 127.64 109.873 127.666 110.778 127.673C111.349 127.679 111.92 127.685 112.508 127.691C113.137 127.694 113.765 127.698 114.412 127.702C115.402 127.711 115.402 127.711 116.412 127.72C118.602 127.739 120.792 127.754 122.982 127.769C124.497 127.782 126.012 127.795 127.528 127.808C131.113 127.838 134.699 127.865 138.284 127.892C142.766 127.925 147.248 127.962 151.73 127.999C159.727 128.065 167.723 128.126 175.72 128.186C175.117 130.197 174.513 132.209 173.892 134.281C164.159 134.338 154.426 134.381 144.693 134.407C140.174 134.42 135.654 134.437 131.135 134.465C127.197 134.489 123.258 134.505 119.319 134.511C117.234 134.514 115.148 134.521 113.062 134.539C110.734 134.557 108.407 134.559 106.079 134.558C105.387 134.567 104.695 134.575 103.981 134.584C103.347 134.581 102.713 134.578 102.06 134.574C101.509 134.577 100.958 134.579 100.391 134.581C98.4493 134.185 97.7038 133.368 96.4821 131.843C96.4821 131.441 96.4821 131.038 96.4821 130.624C98.1818 129.996 99.8834 129.375 101.587 128.757C102.071 128.578 102.555 128.398 103.054 128.213C103.517 128.046 103.981 127.879 104.458 127.707C104.886 127.551 105.314 127.394 105.754 127.233C106.844 126.967 106.844 126.967 108.063 127.576Z" fill="#DDF3FB"/>
<path d="M152.558 64.1859C163.42 64.1859 174.282 64.1859 185.473 64.1859C183.212 66.8237 181.055 69.2876 178.611 71.7168C178.324 72.0026 178.037 72.2885 177.742 72.5829C176.841 73.4806 175.938 74.3761 175.034 75.2716C174.426 75.8774 173.817 76.4833 173.208 77.0894C172.092 78.2012 170.974 79.3119 169.856 80.422C168.924 81.3475 168.008 82.2895 167.113 83.2509C165.454 84.7708 163.923 84.6275 161.701 84.9097C160.526 85.2988 159.358 85.7133 158.199 86.1478C157.598 86.3713 156.998 86.5948 156.379 86.8252C155.923 86.9976 155.466 87.1701 154.996 87.3478C154.646 84.6373 154.299 81.9265 153.955 79.2153C153.837 78.2942 153.719 77.3732 153.6 76.4522C153.428 75.124 153.26 73.7955 153.092 72.4668C152.989 71.6688 152.887 70.8708 152.782 70.0487C152.558 67.843 152.558 67.843 152.558 64.1859Z" fill="#DDF3FB"/>
<path d="M130.006 164.757C140.666 164.757 151.327 164.757 162.311 164.757C157.403 178.78 157.403 178.78 155.644 183.5C155.368 184.246 155.368 184.246 155.086 185.007C154.651 186.181 154.214 187.355 153.777 188.529C150.646 185.907 147.71 183.161 144.827 180.269C144.4 179.843 143.974 179.417 143.534 178.977C142.64 178.084 141.747 177.19 140.855 176.296C139.483 174.92 138.107 173.547 136.731 172.175C135.861 171.305 134.992 170.435 134.123 169.564C133.709 169.152 133.296 168.74 132.87 168.316C132.494 167.937 132.117 167.559 131.729 167.168C131.395 166.834 131.061 166.5 130.718 166.156C130.006 165.367 130.006 165.367 130.006 164.757Z" fill="#DDF3FB"/>
<path d="M97.7011 164.757C101.13 167.612 104.301 170.659 107.451 173.817C108.213 174.578 108.213 174.578 108.991 175.355C110.056 176.42 111.121 177.486 112.185 178.553C113.823 180.193 115.464 181.831 117.105 183.468C118.141 184.505 119.177 185.542 120.213 186.579C120.706 187.071 121.2 187.563 121.708 188.07C122.158 188.522 122.608 188.973 123.071 189.439C123.47 189.838 123.868 190.237 124.279 190.648C125.13 191.576 125.13 191.576 125.13 192.186C117.084 192.186 109.038 192.186 100.749 192.186C99.7299 187.092 98.9515 182.092 98.3106 176.948C98.2057 176.171 98.2057 176.171 98.0987 175.379C97.647 171.835 97.6411 168.326 97.7011 164.757Z" fill="#FDFDFE"/>
<path d="M159.263 109.291C160.728 110.469 160.728 110.469 162.227 111.995C162.767 112.541 163.308 113.086 163.864 113.648C164.42 114.221 164.976 114.795 165.549 115.386C166.122 115.966 166.695 116.545 167.269 117.124C171.453 121.379 171.453 121.379 171.453 122.091C155.563 122.091 139.673 122.091 123.301 122.091C123.301 121.688 123.301 121.286 123.301 120.872C123.642 120.746 123.982 120.62 124.333 120.491C127.893 119.175 131.453 117.86 135.012 116.545C136.339 116.055 137.666 115.565 138.992 115.075C140.905 114.368 142.817 113.662 144.73 112.955C145.318 112.738 145.906 112.52 146.512 112.297C147.073 112.089 147.634 111.882 148.212 111.668C148.745 111.474 149.278 111.279 149.827 111.078C150.8 110.712 151.767 110.331 152.727 109.93C155.137 108.935 156.793 108.256 159.263 109.291Z" fill="#DAF1FA"/>
<path d="M207.415 198.281C201.351 206.646 193.739 213.068 185.282 218.929C184.874 219.212 184.465 219.495 184.045 219.787C181.751 221.35 179.46 222.701 176.939 223.881C176.939 222.662 176.939 222.662 178.158 221.405C178.439 221.132 178.719 220.86 179.008 220.579C182.423 217.214 185.3 213.617 187.949 209.633C188.214 209.243 188.479 208.853 188.752 208.45C189.969 206.626 190.984 204.927 191.865 202.907C194.913 196.254 201.046 197.637 207.415 198.281Z" fill="#FBFCFD"/>
<path d="M39.1868 198.281C43.2603 197.47 47.3984 196.761 51.3773 198.281C54.8428 201.432 56.8111 205.922 58.9654 210.013C60.2742 212.336 61.8386 214.313 63.6059 216.3C64.1158 216.879 64.6257 217.458 65.1511 218.055C66.6242 219.624 68.1304 221.151 69.663 222.662C69.3613 223.265 69.3613 223.265 69.0535 223.881C57.9556 216.993 47.4729 209.104 39.1868 198.891C39.1868 198.689 39.1868 198.488 39.1868 198.281Z" fill="#FBFCFD"/>
<path d="M67.2249 33.7097C67.6272 33.9108 68.0295 34.112 68.444 34.3192C68.0095 34.8205 67.575 35.3218 67.1273 35.8382C63.2024 40.3916 63.2024 40.3916 59.5678 45.1763C59.2299 45.6501 58.8921 46.1239 58.544 46.6121C57.6643 48.0293 56.9783 49.3742 56.2868 50.8835C53.6176 56.3521 53.6176 56.3521 51.3773 58.0906C47.4332 59.261 43.1967 58.6976 39.1868 58.0906C46.2613 48.3736 56.4676 39.2974 67.2249 33.7097Z" fill="#D8EFF8"/>
<path d="M176.939 32.4906C185.619 36.8533 192.906 43.1279 200.101 49.5573C198.929 52.1745 197.282 53.6847 195.225 55.6525C192.333 54.7459 191.36 52.364 189.93 49.9002C187.335 45.5856 184.507 41.7863 181.206 37.9763C180.608 37.241 180.011 36.5047 179.415 35.7668C178.295 34.2906 178.295 34.2906 176.939 33.7097C176.939 33.3074 176.939 32.9051 176.939 32.4906Z" fill="#D3ECF5"/>
<path d="M165.358 101.976C169.238 105.173 172.755 108.694 176.292 112.262C176.889 112.862 177.486 113.462 178.083 114.062C179.532 115.518 180.979 116.975 182.425 118.433C182.023 119.238 181.62 120.043 181.206 120.872C178.768 120.872 178.768 120.872 177.036 119.417C176.372 118.752 175.715 118.081 175.063 117.405C174.715 117.053 174.366 116.701 174.008 116.339C172.896 115.214 171.794 114.081 170.692 112.948C169.94 112.184 169.187 111.42 168.434 110.657C166.59 108.786 164.753 106.907 162.92 105.024C163.725 104.018 164.529 103.013 165.358 101.976Z" fill="#C0D9F0"/>
<path d="M13.5868 131.233C20.828 131.233 28.0691 131.233 35.5297 131.233C33.3284 132.334 31.1828 133.193 28.8749 134.038C28.2735 134.259 28.2735 134.259 27.6599 134.484C26.8164 134.793 25.9726 135.101 25.1287 135.409C23.8319 135.882 22.5361 136.358 21.2404 136.833C14.8905 139.157 14.8905 139.157 14.1964 139.157C13.9952 136.542 13.7941 133.928 13.5868 131.233Z" fill="#DCF2FA"/>
<path d="M204.977 114.776C205.279 119.905 205.279 119.905 205.587 125.138C201.966 125.138 198.346 125.138 194.615 125.138C203.175 114.776 203.175 114.776 204.977 114.776Z" fill="#FDFEFE"/>
<path d="M183.034 97.1002C184.939 97.3287 184.939 97.3287 186.692 97.7097C187.073 99.7668 187.073 99.7668 187.301 101.976C186.082 103.195 186.082 103.195 184.596 103.386C183.034 103.195 183.034 103.195 181.892 102.472C181.206 101.367 181.206 101.367 181.32 99.8049C181.815 98.3192 181.815 98.3192 183.034 97.1002Z" fill="#084E72"/>
<path d="M223.263 58.5478C225.092 58.7002 225.092 58.7002 226.311 59.9192C226.463 61.443 226.463 61.443 226.311 62.9668C225.092 64.1859 225.092 64.1859 223.263 64.3383C221.434 64.1859 221.434 64.1859 220.215 62.9668C220.063 61.443 220.063 61.443 220.215 59.9192C221.434 58.7002 221.434 58.7002 223.263 58.5478Z" fill="#064C70"/>
</g>
<defs>
<clipPath id="clip0_7_6">
<rect width="253.397" height="245.462" fill="white" transform="translate(1.16609 5.48572)"/>
</clipPath>
</defs>
</svg>
